<svg width="1200" height="1200" xmlns="http://www.w3.org/2000/svg" xmlns:xlink="http://www.w3.org/1999/xlink" version="1.1"><g transform="scale(17.407899826502373) translate(2.4875084824032254, 2.336710280842248)">                        <g fill="#2d7d87"><path xmlns="http://www.w3.org/2000/svg" d="M36,16.1h0L19.36,1.16c-8.45,8.31-16,23.36-18.28,35.71L19.87,51a90.17,90.17,0,0,1,3.35-12.84l3.24-8A49.39,49.39,0,0,1,36,16.1ZM22.38,24.41,13.77,27.9a1,1,0,0,0-.58,1.23l3.13,9.74a1,1,0,1,1-1.9.61L11,28.86a2,2,0,0,1,1.15-2.47l8.7-3.52a1,1,0,0,0,.61-1.13L19.3,11.15A1,1,0,0,1,20.08,10h0a1,1,0,0,1,1.18.78l2.33,11.41A2,2,0,0,1,22.38,24.41Z"/><path xmlns="http://www.w3.org/2000/svg" d="M40.52,52.78a73.94,73.94,0,0,1,14.36.27,1,1,0,0,0,1.12-1V46.67l4.4,2.58S63,50.67,63,46.67c0-3.3-4.78-7.49-8-10A10.41,10.41,0,0,1,48.4,39a11.65,11.65,0,0,1-2.32-.24,10.56,10.56,0,0,1-7.21-5.44C33.54,33.08,27,33.18,27,35.22c0,3.29,11,4.29,11,4.45V51.89a1,1,0,0,0,1.09,1Z"/><path xmlns="http://www.w3.org/2000/svg" d="M50.64,17.19a8.77,8.77,0,0,0-9.22,3.91,3.71,3.71,0,0,0-4,2.94l-.24,1.18a3.72,3.72,0,0,0,2.41,4.28,9.24,9.24,0,0,0,.66,2.22,8.59,8.59,0,0,0,6.2,5.08c4.46,1,8.86-1.57,10.5-6.53a10.43,10.43,0,0,0,.39-1.41C58.64,23,55.51,18.23,50.64,17.19ZM39.18,25.63l.25-1.18a1.76,1.76,0,0,1,1.7-1.38,2.2,2.2,0,0,1,.36,0L50.3,25A1.75,1.75,0,0,1,51.64,27l-.25,1.18a1.74,1.74,0,0,1-2.06,1.34l-8.81-1.86A1.74,1.74,0,0,1,39.18,25.63Z"/><path xmlns="http://www.w3.org/2000/svg" d="M2,63.1a19.54,19.54,0,0,0,2.49-.46c6.39-1.3,23.38-4.73,35.3-5.54,14.1-1,20.74,1.89,20.8,1.91a1,1,0,1,0,.82-1.82c-.28-.13-7.09-3.09-21.76-2.09-12,.83-29.13,4.28-35.55,5.58-1.06.21-2,.4-2.18.42a1,1,0,0,0,.08,2Z"/></g>        </g></svg>